<svg width="453" height="81" viewBox="0 0 453 81" fill="none" xmlns="http://www.w3.org/2000/svg">
<path d="M411.966 0H40.3087C18.0468 0 0 18.0468 0 40.3087C0 62.5706 18.0468 80.6174 40.3087 80.6174H411.966C434.228 80.6174 452.274 62.5706 452.274 40.3087C452.274 18.0468 434.228 0 411.966 0Z" fill="url(#paint0_linear_1163_30)"/>
<path d="M131.95 50.2249V26.4452L134.268 24.127H143.84L146.158 26.4452V32.3153H141.41V29.3242L140.849 28.7633H137.259L136.699 29.3242V47.3459L137.259 47.9068H140.849L141.41 47.3459V44.3548H146.158V50.2249L143.84 52.5431H134.268L131.95 50.2249ZM163.283 26.4452V50.2249L160.965 52.5431H151.393L149.075 50.2249V26.4452L151.393 24.127H160.965L163.283 26.4452ZM157.936 28.7633H154.347L153.823 29.2868V47.4207L154.347 47.9442H157.936L158.497 47.4207V29.2868L157.936 28.7633ZM166.565 52.5431V24.127H178.828L181.147 26.4452V39.1576L178.828 41.4758L181.147 52.5431H176.473L174.155 41.4758H171.313V52.5431H166.565ZM175.875 36.8769L176.398 36.316V29.2868L175.875 28.7633H171.313V36.8769H175.875ZM184.128 52.5431V24.127H189.25L195.419 41.5506V24.127H200.168V52.5431H195.045L188.876 35.1195V52.5431H184.128ZM203.443 52.5431V24.127H217.053V28.7259H208.192V35.7926H214.772V40.3915H208.192V47.9442H217.053V52.5431H203.443ZM219.837 52.5431V24.127H232.101L234.419 26.4452V39.1576L232.101 41.4758L234.419 52.5431H229.746L227.428 41.4758H224.586V52.5431H219.837ZM229.148 36.8769L229.671 36.316V29.2868L229.148 28.7633H224.586V36.8769H229.148ZM246.636 32.3153V29.3242L246.075 28.7633H242.448L241.887 29.3242V35.2317L242.448 35.7926H249.103L251.421 38.1107V50.2249L249.103 52.5431H239.457L237.139 50.2249V44.3548H241.887V47.3833L242.448 47.9442H246.075L246.636 47.3833V40.9523L246.075 40.3915H239.457L237.139 38.0733V26.4452L239.457 24.127H249.103L251.421 26.4452V32.3153H246.636ZM268.361 28.7259H263.239V52.5431H258.49V28.7259H253.368V24.127H268.361V28.7259ZM284.762 26.4452V50.2249L282.444 52.5431H272.873L270.554 50.2249V26.4452L272.873 24.127H282.444L284.762 26.4452ZM279.416 28.7633H275.826L275.303 29.2868V47.4207L275.826 47.9442H279.416L279.977 47.4207V29.2868L279.416 28.7633ZM288.044 52.5431V24.127H293.167L299.336 41.5506V24.127H304.084V52.5431H298.962L292.793 35.1195V52.5431H288.044ZM307.36 52.5431V24.127H320.97V28.7259H312.108V35.7926H318.689V40.3915H312.108V47.9442H320.97V52.5431H307.36Z" fill="white"/>
<defs>
<linearGradient id="paint0_linear_1163_30" x1="226.131" y1="0" x2="226.131" y2="80.6174" gradientUnits="userSpaceOnUse">
<stop stop-color="#CD00FF"/>
<stop offset="1" stop-color="#7B0099"/>
</linearGradient>
</defs>
</svg>
