<svg width="453" height="81" viewBox="0 0 453 81" fill="none" xmlns="http://www.w3.org/2000/svg">
<path d="M411.966 0H40.3087C18.0468 0 0 18.0468 0 40.3087C0 62.5706 18.0468 80.6174 40.3087 80.6174H411.966C434.228 80.6174 452.274 62.5706 452.274 40.3087C452.274 18.0468 434.228 0 411.966 0Z" fill="url(#paint0_linear_1163_33)"/>
<path d="M142.219 24.127V28.7259H133.358V36.0169H139.901V40.6158H133.358V52.5431H128.609V24.127H142.219ZM158.883 26.4452V50.2249L156.565 52.5431H146.993L144.675 50.2249V26.4452L146.993 24.127H156.565L158.883 26.4452ZM153.536 28.7633H149.947L149.423 29.2868V47.4207L149.947 47.9442H153.536L154.097 47.4207V29.2868L153.536 28.7633ZM176.373 50.2249L174.055 52.5431H164.483L162.165 50.2249V24.127H166.913V47.4207L167.437 47.9442H171.101L171.624 47.4207V24.127H176.373V50.2249ZM179.655 52.5431V24.127H184.777L190.946 41.5506V24.127H195.695V52.5431H190.572L184.403 35.1195V52.5431H179.655ZM211.01 24.127L213.328 26.4452V50.2249L211.01 52.5431H198.97V24.127H211.01ZM207.981 47.9068L208.504 47.3459V29.212L207.981 28.6511H203.756V47.9068H207.981ZM226.717 46.4112H220.884L219.613 52.5431H214.752L221.482 24.127H226.119L232.849 52.5431H227.988L226.717 46.4112ZM225.782 41.8123L223.801 32.2405L221.819 41.8123H225.782ZM245.814 28.7259H240.692V52.5431H235.943V28.7259H230.821V24.127H245.814V28.7259ZM248.007 52.5431V24.127H252.756V52.5431H248.007ZM270.248 26.4452V50.2249L267.93 52.5431H258.359L256.04 50.2249V26.4452L258.359 24.127H267.93L270.248 26.4452ZM264.902 28.7633H261.312L260.789 29.2868V47.4207L261.312 47.9442H264.902L265.463 47.4207V29.2868L264.902 28.7633ZM273.53 52.5431V24.127H278.653L284.822 41.5506V24.127H289.57V52.5431H284.448L278.279 35.1195V52.5431H273.53ZM303.614 46.4112H297.781L296.51 52.5431H291.649L298.379 24.127H303.016L309.746 52.5431H304.885L303.614 46.4112ZM302.679 41.8123L300.698 32.2405L298.716 41.8123H302.679ZM324.882 52.5431H311.833V24.127H316.619V47.9442H324.882V52.5431Z" fill="white"/>
<defs>
<linearGradient id="paint0_linear_1163_33" x1="226.131" y1="0" x2="226.131" y2="80.6049" gradientUnits="userSpaceOnUse">
<stop stop-color="#3105C1"/>
<stop offset="1" stop-color="#08022B"/>
</linearGradient>
</defs>
</svg>
