<svg width="453" height="81" viewBox="0 0 453 81" fill="none" xmlns="http://www.w3.org/2000/svg">
<path d="M411.966 0H40.3087C18.0468 0 0 18.0468 0 40.3087C0 62.5706 18.0468 80.6174 40.3087 80.6174H411.966C434.228 80.6174 452.274 62.5706 452.274 40.3087C452.274 18.0468 434.228 0 411.966 0Z" fill="url(#paint0_linear_1163_57)"/>
<path d="M121.337 24.1271V50.2251L119.019 52.5432H109.596L107.278 50.2251V41.8124H111.989V47.4208L112.55 47.9443H116.027L116.588 47.4208V24.1271H121.337ZM135.379 46.4113H129.546L128.275 52.5432H123.414L130.145 24.1271H134.781L141.511 52.5432H136.65L135.379 46.4113ZM134.444 41.8124L132.463 32.2407L130.481 41.8124H134.444ZM142.941 50.2251V26.4453L145.259 24.1271H155.167L157.485 26.4453V32.3154H152.737V29.2121L152.213 28.6513H148.287L147.726 29.2121V47.3461L148.287 47.9069H152.213L152.737 47.3461V41.6628H150.456L150.418 36.9891H157.485V50.2251L155.167 52.5432H145.259L142.941 50.2251ZM183.805 40.6533H169.522V36.0544H183.805V40.6533ZM196.067 52.5432V24.1271H200.816V52.5432H196.067ZM204.1 52.5432V24.1271H209.223L215.392 41.5507V24.1271H220.14V52.5432H215.018L208.849 35.1197V52.5432H204.1ZM232.651 32.3154V29.3243L232.09 28.7634H228.463L227.903 29.3243V35.2318L228.463 35.7927H235.119L237.437 38.1108V50.2251L235.119 52.5432H225.472L223.154 50.2251V44.3549H227.903V47.3834L228.463 47.9443H232.09L232.651 47.3834V40.9524L232.09 40.3916H225.472L223.154 38.0734V26.4453L225.472 24.1271H235.119L237.437 26.4453V32.3154H232.651ZM254.676 50.2251L252.357 52.5432H242.786L240.467 50.2251V24.1271H245.216V47.4208L245.739 47.9443H249.404L249.927 47.4208V24.1271H254.676V50.2251ZM257.957 52.5432V24.1271H270.221L272.539 26.4453V39.1577L270.221 41.4759L272.539 52.5432H267.866L265.547 41.4759H262.706V52.5432H257.957ZM267.267 36.877L267.791 36.3161V29.2869L267.267 28.7634H262.706V36.877H267.267ZM286.288 46.4113H280.456L279.184 52.5432H274.324L281.054 24.1271H285.69L292.42 52.5432H287.56L286.288 46.4113ZM285.354 41.8124L283.372 32.2407L281.39 41.8124H285.354ZM294.507 52.5432V24.1271H299.629L305.799 41.5507V24.1271H310.547V52.5432H305.425L299.256 35.1197V52.5432H294.507ZM313.823 50.2251V26.4453L316.141 24.1271H325.713L328.031 26.4453V32.3154H323.282V29.3243L322.721 28.7634H319.132L318.571 29.3243V47.3461L319.132 47.9069H322.721L323.282 47.3461V44.3549H328.031V50.2251L325.713 52.5432H316.141L313.823 50.2251ZM330.947 52.5432V24.1271H344.557V28.726H335.696V35.7927H342.276V40.3916H335.696V47.9443H344.557V52.5432H330.947Z" fill="white"/>
<defs>
<linearGradient id="paint0_linear_1163_57" x1="226.131" y1="0" x2="226.131" y2="80.6174" gradientUnits="userSpaceOnUse">
<stop stop-color="#736357"/>
<stop offset="1" stop-color="#1E1209"/>
</linearGradient>
</defs>
</svg>
