<svg width="453" height="81" viewBox="0 0 453 81" fill="none" xmlns="http://www.w3.org/2000/svg">
<path d="M411.966 0H40.3087C18.0468 0 0 18.0468 0 40.3087C0 62.5706 18.0468 80.6174 40.3087 80.6174H411.966C434.228 80.6174 452.274 62.5706 452.274 40.3087C452.274 18.0468 434.228 0 411.966 0Z" fill="url(#paint0_linear_1163_60)"/>
<path d="M84.2757 24.1269V50.2248L81.9575 52.543H72.5354L70.2172 50.2248V41.8122H74.9283V47.4206L75.4891 47.944H78.9664L79.5272 47.4206V24.1269H84.2757ZM98.3181 46.4111H92.4853L91.2141 52.543H86.3535L93.0836 24.1269H97.7199L104.45 52.543H99.5894L98.3181 46.4111ZM97.3834 41.8122L95.4017 32.2404L93.4201 41.8122H97.3834ZM105.88 50.2248V26.445L108.198 24.1269H118.106L120.424 26.445V32.3152H115.676V29.2119L115.152 28.651H111.226L110.665 29.2119V47.3458L111.226 47.9067H115.152L115.676 47.3458V41.6626H113.395L113.357 36.9889H120.424V50.2248L118.106 52.543H108.198L105.88 50.2248ZM146.744 40.6531H132.461V36.0542H146.744V40.6531ZM171.046 24.1269L173.364 26.445V50.2248L171.046 52.543H159.006V24.1269H171.046ZM168.017 47.9067L168.541 47.3458V29.2119L168.017 28.651H163.792V47.9067H168.017ZM176.642 52.543V24.1269H190.252V28.7258H181.391V35.7924H187.971V40.3914H181.391V47.944H190.252V52.543H176.642ZM203.207 52.543H197.15L191.84 24.1269H196.589L200.178 45.252L203.768 24.1269H208.516L203.207 52.543ZM210.6 52.543V24.1269H224.209V28.7258H215.348V35.7924H221.929V40.3914H215.348V47.944H224.209V52.543H210.6ZM240.043 52.543H226.994V24.1269H231.78V47.944H240.043V52.543ZM256.465 26.445V50.2248L254.147 52.543H244.575L242.257 50.2248V26.445L244.575 24.1269H254.147L256.465 26.445ZM251.118 28.7632H247.529L247.005 29.2866V47.4206L247.529 47.944H251.118L251.679 47.4206V29.2866L251.118 28.7632ZM259.746 52.543V24.1269H271.823L274.141 26.445V39.1575L271.823 41.4757H264.495V52.543H259.746ZM268.795 36.8767L269.356 36.3159V29.2866L268.795 28.7632H264.495V36.8767H268.795ZM288.723 46.4485H286.255L281.656 33.3621V52.543H276.908V24.1269H282.815L287.489 37.5497L292.163 24.1269H298.07V52.543H293.322V33.3621L288.723 46.4485ZM301.372 52.543V24.1269H314.981V28.7258H306.12V35.7924H312.701V40.3914H306.12V47.944H314.981V52.543H301.372ZM317.766 52.543V24.1269H322.888L329.058 41.5504V24.1269H333.806V52.543H328.684L322.515 35.1194V52.543H317.766ZM350.99 28.7258H345.868V52.543H341.12V28.7258H335.997V24.1269H350.99V28.7258ZM360.922 46.4111H355.089L353.817 52.543H348.957L355.687 24.1269H360.323L367.053 52.543H362.193L360.922 46.4111ZM359.987 41.8122L358.005 32.2404L356.023 41.8122H359.987ZM382.189 52.543H369.14V24.1269H373.926V47.944H382.189V52.543Z" fill="#07223F"/>
<defs>
<linearGradient id="paint0_linear_1163_60" x1="226.137" y1="0" x2="226.137" y2="80.6174" gradientUnits="userSpaceOnUse">
<stop stop-color="#CDCDCD"/>
<stop offset="1" stop-color="#5B5B5B"/>
</linearGradient>
</defs>
</svg>
