<svg width="453" height="81" viewBox="0 0 453 81" fill="none" xmlns="http://www.w3.org/2000/svg">
<path d="M411.966 0H40.3087C18.0468 0 0 18.0468 0 40.3087C0 62.5706 18.0468 80.6174 40.3087 80.6174H411.966C434.228 80.6174 452.274 62.5706 452.274 40.3087C452.274 18.0468 434.228 0 411.966 0Z" fill="url(#paint0_linear_1163_36)"/>
<path d="M172.465 46.4487H169.997L165.398 33.3624V52.5432H160.649V24.1271H166.557L171.231 37.55L175.904 24.1271H181.812V52.5432H177.064V33.3624L172.465 46.4487ZM195.882 46.4113H190.049L188.778 52.5432H183.917L190.647 24.1271H195.283L202.013 52.5432H197.153L195.882 46.4113ZM194.947 41.8124L192.965 32.2407L190.984 41.8124H194.947ZM204.1 52.5432V24.1271H208.849V52.5432H204.1ZM212.133 52.5432V24.1271H217.256L223.425 41.5507V24.1271H228.173V52.5432H223.051L216.882 35.1197V52.5432H212.133ZM240.684 32.3154V29.3243L240.123 28.7634H236.496L235.935 29.3243V35.2318L236.496 35.7927H243.152L245.47 38.1108V50.2251L243.152 52.5432H233.505L231.187 50.2251V44.3549H235.935V47.3834L236.496 47.9443H240.123L240.684 47.3834V40.9524L240.123 40.3916H233.505L231.187 38.0734V26.4453L233.505 24.1271H243.152L245.47 26.4453V32.3154H240.684ZM262.409 28.726H257.287V52.5432H252.538V28.726H247.416V24.1271H262.409V28.726ZM272.34 46.4113H266.508L265.236 52.5432H260.376L267.106 24.1271H271.742L278.472 52.5432H273.612L272.34 46.4113ZM271.406 41.8124L269.424 32.2407L267.442 41.8124H271.406ZM286.453 52.5432H281.742V42.635L275.237 24.1271H280.396L284.098 36.0544L287.799 24.1271H292.959L286.453 42.635V52.5432Z" fill="white"/>
<defs>
<linearGradient id="paint0_linear_1163_36" x1="226.137" y1="0" x2="226.137" y2="80.6174" gradientUnits="userSpaceOnUse">
<stop stop-color="#00B1FF"/>
<stop offset="1" stop-color="#006A99"/>
</linearGradient>
</defs>
</svg>
