<svg width="453" height="81" viewBox="0 0 453 81" fill="none" xmlns="http://www.w3.org/2000/svg">
<path d="M411.966 0H40.3087C18.0468 0 0 18.0468 0 40.3087C0 62.5706 18.0468 80.6174 40.3087 80.6174H411.966C434.228 80.6174 452.274 62.5706 452.274 40.3087C452.274 18.0468 434.228 0 411.966 0Z" fill="url(#paint0_linear_1163_42)"/>
<path d="M117.053 52.5432V24.1271H129.129L131.448 26.4453V39.1577L129.129 41.4759H121.801V52.5432H117.053ZM126.101 36.877L126.662 36.3161V29.2869L126.101 28.7634H121.801V36.877H126.101ZM134.214 52.5432V24.1271H146.478L148.796 26.4453V39.1577L146.478 41.4759L148.796 52.5432H144.122L141.804 41.4759H138.962V52.5432H134.214ZM143.524 36.877L144.047 36.3161V29.2869L143.524 28.7634H138.962V36.877H143.524ZM165.985 26.4453V50.2251L163.667 52.5432H154.095L151.777 50.2251V26.4453L154.095 24.1271H163.667L165.985 26.4453ZM160.638 28.7634H157.049L156.525 29.2869V47.4208L157.049 47.9443H160.638L161.199 47.4208V29.2869L160.638 28.7634ZM181.306 24.1271L183.624 26.4453V50.2251L181.306 52.5432H169.267V24.1271H181.306ZM178.277 47.9069L178.801 47.3461V29.2121L178.277 28.6513H174.052V47.9069H178.277ZM201.111 50.2251L198.792 52.5432H189.221L186.903 50.2251V24.1271H191.651V47.4208L192.174 47.9443H195.839L196.362 47.4208V24.1271H201.111V50.2251ZM204.392 50.2251V26.4453L206.711 24.1271H216.282L218.6 26.4453V32.3154H213.852V29.3243L213.291 28.7634H209.702L209.141 29.3243V47.3461L209.702 47.9069H213.291L213.852 47.3461V44.3549H218.6V50.2251L216.282 52.5432H206.711L204.392 50.2251ZM235.426 28.726H230.304V52.5432H225.555V28.726H220.433V24.1271H235.426V28.726ZM237.619 52.5432V24.1271H242.368V52.5432H237.619ZM255.822 52.5432H249.765L244.456 24.1271H249.204L252.794 45.2522L256.383 24.1271H261.132L255.822 52.5432ZM263.215 52.5432V24.1271H276.825V28.726H267.964V35.7927H274.544V40.3916H267.964V47.9443H276.825V52.5432H263.215ZM298.762 52.5432H292.705L287.395 24.1271H292.144L295.733 45.2522L299.323 24.1271H304.071L298.762 52.5432ZM306.155 52.5432V24.1271H319.765V28.726H310.903V35.7927H317.484V40.3916H310.903V47.9443H319.765V52.5432H306.155ZM336.458 28.726H331.336V52.5432H326.587V28.726H321.465V24.1271H336.458V28.726Z" fill="white"/>
<defs>
<linearGradient id="paint0_linear_1163_42" x1="226.131" y1="0" x2="226.131" y2="80.6049" gradientUnits="userSpaceOnUse">
<stop stop-color="#007410"/>
<stop offset="1" stop-color="#003A09"/>
</linearGradient>
</defs>
</svg>
