<svg width="453" height="81" viewBox="0 0 453 81" fill="none" xmlns="http://www.w3.org/2000/svg">
<path d="M411.966 0H40.3087C18.0468 0 0 18.0468 0 40.3087C0 62.5706 18.0468 80.6174 40.3087 80.6174H411.966C434.228 80.6174 452.274 62.5706 452.274 40.3087C452.274 18.0468 434.228 0 411.966 0Z" fill="url(#paint0_linear_1163_63)"/>
<path d="M134.689 52.543V24.1269H146.952L149.27 26.445V39.1575L146.952 41.4757L149.27 52.543H144.597L142.279 41.4757H139.437V52.543H134.689ZM143.999 36.8767L144.522 36.3159V29.2866L143.999 28.7632H139.437V36.8767H143.999ZM152.251 52.543V24.1269H165.861V28.7258H157V35.7924H163.58V40.3914H157V47.944H165.861V52.543H152.251ZM168.646 52.543V24.1269H180.723L183.041 26.445V39.1575L180.723 41.4757H173.394V52.543H168.646ZM177.694 36.8767L178.255 36.3159V29.2866L177.694 28.7632H173.394V36.8767H177.694ZM198.856 52.543H185.807V24.1269H190.593V47.944H198.856V52.543ZM211.838 46.4111H206.005L204.734 52.543H199.873L206.603 24.1269H211.24L217.97 52.543H213.109L211.838 46.4111ZM210.903 41.8122L208.921 32.2404L206.94 41.8122H210.903ZM219.399 50.2248V26.445L221.717 24.1269H231.289L233.607 26.445V32.3152H228.859V29.324L228.298 28.7632H224.709L224.148 29.324V47.3458L224.709 47.9067H228.298L228.859 47.3458V44.3546H233.607V50.2248L231.289 52.543H221.717L219.399 50.2248ZM236.524 52.543V24.1269H250.134V28.7258H241.273V35.7924H247.853V40.3914H241.273V47.944H250.134V52.543H236.524ZM263.687 46.4111H257.854L256.583 52.543H251.722L258.452 24.1269H263.088L269.819 52.543H264.958L263.687 46.4111ZM262.752 41.8122L260.77 32.2404L258.789 41.8122H262.752ZM283.982 24.1269L286.3 26.445V35.7177L283.982 38.0358L286.3 40.354V50.2248L283.982 52.543H271.905V24.1269H283.982ZM281.028 35.7924L281.552 35.2316V29.2119L281.028 28.651H276.691V35.7924H281.028ZM281.028 40.3914H276.691V47.9067H281.028L281.552 47.3458V40.9148L281.028 40.3914ZM302.408 52.543H289.359V24.1269H294.145V47.944H302.408V52.543ZM304.621 52.543V24.1269H318.231V28.7258H309.37V35.7924H315.95V40.3914H309.37V47.944H318.231V52.543H304.621Z" fill="white"/>
<defs>
<linearGradient id="paint0_linear_1163_63" x1="226.137" y1="0" x2="226.137" y2="80.6174" gradientUnits="userSpaceOnUse">
<stop stop-color="#2D2D2D"/>
<stop offset="1"/>
</linearGradient>
</defs>
</svg>
