<svg width="453" height="81" viewBox="0 0 453 81" fill="none" xmlns="http://www.w3.org/2000/svg">
<path d="M411.966 0H40.3087C18.0468 0 0 18.0468 0 40.3087C0 62.5706 18.0468 80.6174 40.3087 80.6174H411.966C434.228 80.6174 452.274 62.5706 452.274 40.3087C452.274 18.0468 434.228 0 411.966 0Z" fill="url(#paint0_linear_1163_54)"/>
<path d="M147.977 32.3152V29.324L147.416 28.7632H143.789L143.228 29.324V35.2316L143.789 35.7924H150.444L152.763 38.1106V50.2248L150.444 52.543H140.798L138.48 50.2248V44.3546H143.228V47.3832L143.789 47.944H147.416L147.977 47.3832V40.9522L147.416 40.3914H140.798L138.48 38.0732V26.445L140.798 24.1269H150.444L152.763 26.445V32.3152H147.977ZM155.793 52.543V24.1269H169.403V28.7258H160.542V35.7924H167.122V40.3914H160.542V47.944H169.403V52.543H155.793ZM172.188 52.543V24.1269H184.451L186.77 26.445V39.1575L184.451 41.4757L186.77 52.543H182.096L179.778 41.4757H176.936V52.543H172.188ZM181.498 36.8767L182.021 36.3159V29.2866L181.498 28.7632H176.936V36.8767H181.498ZM199.921 52.543H193.863L188.554 24.1269H193.303L196.892 45.252L200.481 24.1269H205.23L199.921 52.543ZM207.313 52.543V24.1269H212.062V52.543H207.313ZM215.346 50.2248V26.445L217.664 24.1269H227.236L229.554 26.445V32.3152H224.806V29.324L224.245 28.7632H220.656L220.095 29.324V47.3458L220.656 47.9067H224.245L224.806 47.3458V44.3546H229.554V50.2248L227.236 52.543H217.664L215.346 50.2248ZM232.471 52.543V24.1269H246.081V28.7258H237.22V35.7924H243.8V40.3914H237.22V47.944H246.081V52.543H232.471ZM259.634 46.4111H253.801L252.53 52.543H247.669L254.399 24.1269H259.035L265.766 52.543H260.905L259.634 46.4111ZM258.699 41.8122L256.717 32.2404L254.736 41.8122H258.699ZM279.929 24.1269L282.247 26.445V35.7177L279.929 38.0358L282.247 40.354V50.2248L279.929 52.543H267.852V24.1269H279.929ZM276.975 35.7924L277.499 35.2316V29.2119L276.975 28.651H272.638V35.7924H276.975ZM276.975 40.3914H272.638V47.9067H276.975L277.499 47.3458V40.9148L276.975 40.3914ZM298.355 52.543H285.306V24.1269H290.092V47.944H298.355V52.543ZM300.568 52.543V24.1269H314.178V28.7258H305.317V35.7924H311.897V40.3914H305.317V47.944H314.178V52.543H300.568Z" fill="white"/>
<defs>
<linearGradient id="paint0_linear_1163_54" x1="226.137" y1="0" x2="226.137" y2="80.6174" gradientUnits="userSpaceOnUse">
<stop stop-color="#DB2335"/>
<stop offset="1" stop-color="#75131C"/>
</linearGradient>
</defs>
</svg>
