<svg width="453" height="81" viewBox="0 0 453 81" fill="none" xmlns="http://www.w3.org/2000/svg">
<path d="M411.966 0H40.3087C18.0468 0 0 18.0468 0 40.3087C0 62.5706 18.0468 80.6174 40.3087 80.6174H411.966C434.228 80.6174 452.274 62.5706 452.274 40.3087C452.274 18.0468 434.228 0 411.966 0Z" fill="url(#paint0_linear_1163_51)"/>
<path d="M64.9638 32.3157V29.3245L64.4029 28.7637H60.7762L60.2153 29.3245V35.2321L60.7762 35.7929H67.4315L69.7497 38.1111V50.2253L67.4315 52.5435H57.785L55.4668 50.2253V44.3551H60.2153V47.3837L60.7762 47.9445H64.4029L64.9638 47.3837V40.9527L64.4029 40.3918H57.785L55.4668 38.0737V26.4455L57.785 24.1274H67.4315L69.7497 26.4455V32.3157H64.9638ZM77.5287 24.1274V35.8677H82.8754V24.1274H87.6239V52.5435H82.8754V40.4666H77.5287V52.5435H72.7803V24.1274H77.5287ZM105.135 26.4455V50.2253L102.817 52.5435H93.2455L90.9274 50.2253V26.4455L93.2455 24.1274H102.817L105.135 26.4455ZM99.7887 28.7637H96.1993L95.6758 29.2871V47.4211L96.1993 47.9445H99.7887L100.35 47.4211V29.2871L99.7887 28.7637ZM108.417 52.5435V24.1274H120.681L122.999 26.4455V39.158L120.681 41.4761L122.999 52.5435H118.325L116.007 41.4761H113.166V52.5435H108.417ZM117.727 36.8772L118.251 36.3164V29.2871L117.727 28.7637H113.166V36.8772H117.727ZM139.889 28.7263H134.767V52.5435H130.018V28.7263H124.896V24.1274H139.889V28.7263ZM164.974 28.7263H159.851V52.5435H155.103V28.7263H149.98V24.1274H164.974V28.7263ZM167.167 52.5435V24.1274H180.777V28.7263H171.916V35.7929H178.496V40.3918H171.916V47.9445H180.777V52.5435H167.167ZM183.562 52.5435V24.1274H195.825L198.143 26.4455V39.158L195.825 41.4761L198.143 52.5435H193.47L191.152 41.4761H188.31V52.5435H183.562ZM192.872 36.8772L193.395 36.3164V29.2871L192.872 28.7637H188.31V36.8772H192.872ZM212.939 46.449H210.472L205.873 33.3626V52.5435H201.124V24.1274H207.032L211.706 37.5502L216.379 24.1274H222.287V52.5435H217.538V33.3626L212.939 46.449ZM234.571 52.5435V24.1274H246.647L248.966 26.4455V39.158L246.647 41.4761H239.319V52.5435H234.571ZM243.619 36.8772L244.18 36.3164V29.2871L243.619 28.7637H239.319V36.8772H243.619ZM251.732 52.5435V24.1274H263.996L266.314 26.4455V39.158L263.996 41.4761L266.314 52.5435H261.64L259.322 41.4761H256.48V52.5435H251.732ZM261.042 36.8772L261.565 36.3164V29.2871L261.042 28.7637H256.48V36.8772H261.042ZM283.503 26.4455V50.2253L281.185 52.5435H271.613L269.295 50.2253V26.4455L271.613 24.1274H281.185L283.503 26.4455ZM278.156 28.7637H274.567L274.043 29.2871V47.4211L274.567 47.9445H278.156L278.717 47.4211V29.2871L278.156 28.7637ZM298.824 24.1274L301.142 26.4455V50.2253L298.824 52.5435H286.785V24.1274H298.824ZM295.795 47.9071L296.319 47.3463V29.2124L295.795 28.6515H291.57V47.9071H295.795ZM318.628 50.2253L316.31 52.5435H306.739L304.42 50.2253V24.1274H309.169V47.4211L309.692 47.9445H313.357L313.88 47.4211V24.1274H318.628V50.2253ZM321.91 50.2253V26.4455L324.228 24.1274H333.8L336.118 26.4455V32.3157H331.37V29.3245L330.809 28.7637H327.22L326.659 29.3245V47.3463L327.22 47.9071H330.809L331.37 47.3463V44.3551H336.118V50.2253L333.8 52.5435H324.228L321.91 50.2253ZM352.944 28.7263H347.822V52.5435H343.073V28.7263H337.951V24.1274H352.944V28.7263ZM355.137 52.5435V24.1274H359.886V52.5435H355.137ZM377.378 26.4455V50.2253L375.06 52.5435H365.488L363.17 50.2253V26.4455L365.488 24.1274H375.06L377.378 26.4455ZM372.032 28.7637H368.442L367.919 29.2871V47.4211L368.442 47.9445H372.032L372.592 47.4211V29.2871L372.032 28.7637ZM380.66 52.5435V24.1274H385.782L391.952 41.5509V24.1274H396.7V52.5435H391.578L385.409 35.1199V52.5435H380.66Z" fill="#07223F"/>
<defs>
<linearGradient id="paint0_linear_1163_51" x1="226.137" y1="0" x2="226.137" y2="80.6174" gradientUnits="userSpaceOnUse">
<stop stop-color="#EA9A19"/>
<stop offset="1" stop-color="#FF4200"/>
</linearGradient>
</defs>
</svg>
