<svg width="453" height="81" viewBox="0 0 453 81" fill="none" xmlns="http://www.w3.org/2000/svg">
<path d="M411.966 0H40.3087C18.0468 0 0 18.0468 0 40.3087C0 62.5706 18.0468 80.6174 40.3087 80.6174H411.966C434.228 80.6174 452.274 62.5706 452.274 40.3087C452.274 18.0468 434.228 0 411.966 0Z" fill="url(#paint0_linear_1163_45)"/>
<path d="M28.7974 32.3152V29.324L28.2365 28.7632H24.6098L24.0489 29.324V35.2316L24.6098 35.7924H31.2651L33.5833 38.1106V50.2248L31.2651 52.543H21.6186L19.3004 50.2248V44.3546H24.0489V47.3832L24.6098 47.944H28.2365L28.7974 47.3832V40.9522L28.2365 40.3914H21.6186L19.3004 38.0732V26.445L21.6186 24.1269H31.2651L33.5833 26.445V32.3152H28.7974ZM41.3623 24.1269V35.8672H46.709V24.1269H51.4575V52.543H46.709V40.4661H41.3623V52.543H36.6139V24.1269H41.3623ZM68.969 26.445V50.2248L66.6508 52.543H57.0791L54.761 50.2248V26.445L57.0791 24.1269H66.6508L68.969 26.445ZM63.6223 28.7632H60.0329L59.5094 29.2866V47.4206L60.0329 47.944H63.6223L64.1831 47.4206V29.2866L63.6223 28.7632ZM72.2508 52.543V24.1269H84.5146L86.8327 26.445V39.1575L84.5146 41.4757L86.8327 52.543H82.159L79.8409 41.4757H76.9993V52.543H72.2508ZM81.5608 36.8767L82.0843 36.3159V29.2866L81.5608 28.7632H76.9993V36.8767H81.5608ZM103.723 28.7258H98.6002V52.543H93.8518V28.7258H88.7294V24.1269H103.723V28.7258ZM128.807 28.7258H123.685V52.543H118.936V28.7258H113.814V24.1269H128.807V28.7258ZM131.001 52.543V24.1269H144.61V28.7258H135.749V35.7924H142.33V40.3914H135.749V47.944H144.61V52.543H131.001ZM147.395 52.543V24.1269H159.659L161.977 26.445V39.1575L159.659 41.4757L161.977 52.543H157.303L154.985 41.4757H152.144V52.543H147.395ZM156.705 36.8767L157.229 36.3159V29.2866L156.705 28.7632H152.144V36.8767H156.705ZM176.773 46.4485H174.305L169.706 33.3621V52.543H164.958V24.1269H170.866L175.539 37.5497L180.213 24.1269H186.12V52.543H181.372V33.3621L176.773 46.4485ZM211.453 52.543H198.404V24.1269H203.19V47.944H211.453V52.543ZM213.667 52.543V24.1269H227.276V28.7258H218.415V35.7924H224.996V40.3914H218.415V47.944H227.276V52.543H213.667ZM240.829 46.4111H234.997L233.725 52.543H228.865L235.595 24.1269H240.231L246.961 52.543H242.101L240.829 46.4111ZM239.895 41.8122L237.913 32.2404L235.931 41.8122H239.895ZM248.391 50.2248V26.445L250.709 24.1269H260.617L262.935 26.445V32.3152H258.187V29.2119L257.663 28.651H253.738L253.177 29.2119V47.3458L253.738 47.9067H257.663L258.187 47.3458V41.6626H255.906L255.869 36.9889H262.935V50.2248L260.617 52.543H250.709L248.391 50.2248ZM280.198 50.2248L277.88 52.543H268.308L265.99 50.2248V24.1269H270.739V47.4206L271.262 47.944H274.926L275.45 47.4206V24.1269H280.198V50.2248ZM283.48 52.543V24.1269H297.09V28.7258H288.229V35.7924H294.809V40.3914H288.229V47.944H297.09V52.543H283.48ZM330.954 52.543H324.972L322.018 33.0256L319.064 52.543H313.082L307.66 24.1269H312.484L315.998 44.6538L319.401 24.1269H324.635L328.038 44.6538L331.552 24.1269H336.376L330.954 52.543ZM338.469 52.543V24.1269H343.218V52.543H338.469ZM346.502 52.543V24.1269H351.624L357.794 41.5504V24.1269H362.542V52.543H357.42L351.25 35.1194V52.543H346.502ZM365.817 52.543V24.1269H370.94L377.109 41.5504V24.1269H381.858V52.543H376.735L370.566 35.1194V52.543H365.817ZM385.133 52.543V24.1269H398.743V28.7258H389.881V35.7924H396.462V40.3914H389.881V47.944H398.743V52.543H385.133ZM401.527 52.543V24.1269H413.791L416.109 26.445V39.1575L413.791 41.4757L416.109 52.543H411.436L409.118 41.4757H406.276V52.543H401.527ZM410.837 36.8767L411.361 36.3159V29.2866L410.837 28.7632H406.276V36.8767H410.837ZM428.326 32.3152V29.324L427.765 28.7632H424.138L423.577 29.324V35.2316L424.138 35.7924H430.793L433.111 38.1106V50.2248L430.793 52.543H421.147L418.829 50.2248V44.3546H423.577V47.3832L424.138 47.944H427.765L428.326 47.3832V40.9522L427.765 40.3914H421.147L418.829 38.0732V26.445L421.147 24.1269H430.793L433.111 26.445V32.3152H428.326Z" fill="white"/>
<defs>
<linearGradient id="paint0_linear_1163_45" x1="226.137" y1="0" x2="226.137" y2="80.6174" gradientUnits="userSpaceOnUse">
<stop stop-color="#1AE069"/>
<stop offset="1" stop-color="#0E7A39"/>
</linearGradient>
</defs>
</svg>
