<svg width="453" height="81" viewBox="0 0 453 81" fill="none" xmlns="http://www.w3.org/2000/svg">
<path d="M411.966 0H40.3087C18.0468 0 0 18.0468 0 40.3087C0 62.5706 18.0468 80.6174 40.3087 80.6174H411.966C434.228 80.6174 452.274 62.5706 452.274 40.3087C452.274 18.0468 434.228 0 411.966 0Z" fill="url(#paint0_linear_1163_39)"/>
<path d="M131.9 50.2251L129.582 52.5432H120.01L117.692 50.2251V24.1271H122.44V47.4208L122.964 47.9443H126.628L127.151 47.4208V24.1271H131.9V50.2251ZM135.181 52.5432V24.1271H147.258L149.576 26.4453V39.1577L147.258 41.4759H139.93V52.5432H135.181ZM144.23 36.877L144.791 36.3161V29.2869L144.23 28.7634H139.93V36.877H144.23ZM161.578 32.3154V29.3243L161.017 28.7634H157.39L156.829 29.3243V35.2318L157.39 35.7927H164.046L166.364 38.1108V50.2251L164.046 52.5432H154.399L152.081 50.2251V44.3549H156.829V47.3834L157.39 47.9443H161.017L161.578 47.3834V40.9524L161.017 40.3916H154.399L152.081 38.0734V26.4453L154.399 24.1271H164.046L166.364 26.4453V32.3154H161.578ZM169.394 52.5432V24.1271H174.143V52.5432H169.394ZM189.467 24.1271L191.785 26.4453V50.2251L189.467 52.5432H177.427V24.1271H189.467ZM186.438 47.9069L186.962 47.3461V29.2121L186.438 28.6513H182.213V47.9069H186.438ZM195.063 52.5432V24.1271H208.673V28.726H199.812V35.7927H206.392V40.3916H199.812V47.9443H208.673V52.5432H195.063ZM220.44 52.5432V24.1271H232.517L234.835 26.4453V39.1577L232.517 41.4759H225.188V52.5432H220.44ZM229.488 36.877L230.049 36.3161V29.2869L229.488 28.7634H225.188V36.877H229.488ZM237.601 52.5432V24.1271H249.865L252.183 26.4453V39.1577L249.865 41.4759L252.183 52.5432H247.509L245.191 41.4759H242.35V52.5432H237.601ZM246.911 36.877L247.435 36.3161V29.2869L246.911 28.7634H242.35V36.877H246.911ZM255.164 52.5432V24.1271H268.774V28.726H259.913V35.7927H266.493V40.3916H259.913V47.9443H268.774V52.5432H255.164ZM283.374 46.4487H280.906L276.307 33.3624V52.5432H271.559V24.1271H277.466L282.14 37.55L286.813 24.1271H292.721V52.5432H287.973V33.3624L283.374 46.4487ZM296.022 52.5432V24.1271H300.771V52.5432H296.022ZM304.055 52.5432V24.1271H317.665V28.726H308.804V35.7927H315.384V40.3916H308.804V47.9443H317.665V52.5432H304.055ZM320.45 52.5432V24.1271H332.714L335.032 26.4453V39.1577L332.714 41.4759L335.032 52.5432H330.358L328.04 41.4759H325.198V52.5432H320.45ZM329.76 36.877L330.283 36.3161V29.2869L329.76 28.7634H325.198V36.877H329.76Z" fill="white"/>
<defs>
<linearGradient id="paint0_linear_1163_39" x1="226.131" y1="0" x2="226.131" y2="80.6049" gradientUnits="userSpaceOnUse">
<stop stop-color="#1A5AFF"/>
<stop offset="1" stop-color="#0E008D"/>
</linearGradient>
</defs>
</svg>
