<svg width="453" height="81" viewBox="0 0 453 81" fill="none" xmlns="http://www.w3.org/2000/svg">
<path d="M411.966 0H40.3087C18.0468 0 0 18.0468 0 40.3087C0 62.5706 18.0468 80.6174 40.3087 80.6174H411.966C434.228 80.6174 452.274 62.5706 452.274 40.3087C452.274 18.0468 434.228 0 411.966 0Z" fill="url(#paint0_linear_1163_48)"/>
<path d="M156.29 50.2248L153.972 52.543H144.401L142.082 50.2248V24.1269H146.831V47.4206L147.354 47.944H151.019L151.542 47.4206V24.1269H156.29V50.2248ZM159.572 52.543V24.1269H171.649L173.967 26.445V39.1575L171.649 41.4757H164.321V52.543H159.572ZM168.621 36.8767L169.181 36.3159V29.2866L168.621 28.7632H164.321V36.8767H168.621ZM185.969 32.3152V29.324L185.408 28.7632H181.781L181.22 29.324V35.2316L181.781 35.7924H188.436L190.755 38.1106V50.2248L188.436 52.543H178.79L176.472 50.2248V44.3546H181.22V47.3832L181.781 47.944H185.408L185.969 47.3832V40.9522L185.408 40.3914H178.79L176.472 38.0732V26.445L178.79 24.1269H188.436L190.755 26.445V32.3152H185.969ZM193.785 52.543V24.1269H198.534V52.543H193.785ZM213.858 24.1269L216.176 26.445V50.2248L213.858 52.543H201.818V24.1269H213.858ZM210.829 47.9067L211.352 47.3458V29.2119L210.829 28.651H206.604V47.9067H210.829ZM219.454 52.543V24.1269H233.064V28.7258H224.203V35.7924H230.783V40.3914H224.203V47.944H233.064V52.543H219.454ZM254.066 32.3152V29.324L253.505 28.7632H249.878L249.317 29.324V35.2316L249.878 35.7924H256.534L258.852 38.1106V50.2248L256.534 52.543H246.887L244.569 50.2248V44.3546H249.317V47.3832L249.878 47.944H253.505L254.066 47.3832V40.9522L253.505 40.3914H246.887L244.569 38.0732V26.445L246.887 24.1269H256.534L258.852 26.445V32.3152H254.066ZM266.631 24.1269V35.8672H271.978V24.1269H276.726V52.543H271.978V40.4661H266.631V52.543H261.882V24.1269H266.631ZM294.238 26.445V50.2248L291.919 52.543H282.348L280.03 50.2248V26.445L282.348 24.1269H291.919L294.238 26.445ZM288.891 28.7632H285.301L284.778 29.2866V47.4206L285.301 47.944H288.891L289.452 47.4206V29.2866L288.891 28.7632ZM311.428 28.7258H306.306V52.543H301.557V28.7258H296.435V24.1269H311.428V28.7258Z" fill="white"/>
<defs>
<linearGradient id="paint0_linear_1163_48" x1="226.137" y1="0" x2="226.137" y2="80.6174" gradientUnits="userSpaceOnUse">
<stop stop-color="#EABA10"/>
<stop offset="1" stop-color="#846909"/>
</linearGradient>
</defs>
</svg>
